<?xml version="1.0" encoding="UTF-8" standalone="no" ?>
<!DOCTYPE svg PUBLIC "-//W3C//DTD SVG 1.1//EN" "http://www.w3.org/Graphics/SVG/1.1/DTD/svg11.dtd">
<svg xmlns="http://www.w3.org/2000/svg" xmlns:xlink="http://www.w3.org/1999/xlink" version="1.1" width="1080" height="1080" viewBox="0 0 1080 1080" xml:space="preserve">
<desc>Created with Fabric.js 5.2.4</desc>
<defs>
</defs>
<rect x="0" y="0" width="100%" height="100%" fill="transparent"></rect>
<g transform="matrix(1 0 0 1 540 540)" id="5b019889-426c-4ff0-8ef3-6d29bd90b9d3"  >
<rect style="stroke: none; stroke-width: 1; stroke-dasharray: none; stroke-linecap: butt; stroke-dashoffset: 0; stroke-linejoin: miter; stroke-miterlimit: 4; fill: rgb(255,255,255); fill-rule: nonzero; opacity: 1; visibility: hidden;" vector-effect="non-scaling-stroke"  x="-540" y="-540" rx="0" ry="0" width="1080" height="1080" />
</g>
<g transform="matrix(1 0 0 1 540 540)" id="0c51d2c2-5161-4d6b-b649-53d2ff9f8842"  >
</g>
<g transform="matrix(0.75 0 0 0.75 540 510.78)"  >
<path style="stroke: none; stroke-width: 1; stroke-dasharray: none; stroke-linecap: butt; stroke-dashoffset: 0; stroke-linejoin: miter; stroke-miterlimit: 4; fill: rgb(245,245,245); fill-rule: nonzero; opacity: 1;"  transform=" translate(-720, -85.35)" d="M 0 96 L 60 90.7 C 120 85 240 75 360 69.3 C 480 64 600 64 720 90.7 C 840 117 960 171 1080 170.7 C 1200 171 1320 117 1380 90.7 L 1440 64 L 1440 0 L 1380 0 C 1320 0 1200 0 1080 0 C 960 0 840 0 720 0 C 600 0 480 0 360 0 C 240 0 120 0 60 0 L 0 0 Z" stroke-linecap="round" />
</g>
<g transform="matrix(0.75 0 0 0.75 540 540)"  >
<path style="stroke: none; stroke-width: 1; stroke-dasharray: none; stroke-linecap: butt; stroke-dashoffset: 0; stroke-linejoin: miter; stroke-miterlimit: 4; fill: rgb(245,245,245); fill-rule: nonzero; opacity: 1;"  transform=" translate(-720, -85.35)" d="M 0 96 L 60 90.7 C 120 85 240 75 360 69.3 C 480 64 600 64 720 90.7 C 840 117 960 171 1080 170.7 C 1200 171 1320 117 1380 90.7 L 1440 64 L 1440 0 L 1380 0 C 1320 0 1200 0 1080 0 C 960 0 840 0 720 0 C 600 0 480 0 360 0 C 240 0 120 0 60 0 L 0 0 Z" stroke-linecap="round" />
</g>
</svg>